<?xml version="1.0" encoding="UTF-8"?><svg id="a" xmlns="http://www.w3.org/2000/svg" width="800" height="800" viewBox="0 0 800 800"><rect width="800" height="800" fill="#e64415" stroke-width="0"/><path d="m264.99987,512.50033v-45.00026c0-12.42621,10.07359-22.4998,22.4998-22.4998,12.42621,0,22.4998,10.07359,22.4998,22.4998v45.00026c0,12.42621-10.07359,22.4998-22.4998,22.4998-12.42621,0-22.4998-10.07359-22.4998-22.4998Zm89.99987,0v-90.00053c0-12.42621,10.07359-22.4998,22.4998-22.4998,12.42621,0,22.4998,10.07359,22.4998,22.4998v90.00053c0,12.42621-10.07359,22.4998-22.4998,22.4998-12.42621,0-22.4998-10.07359-22.4998-22.4998Zm89.99987,0v-135.00013c0-12.42654,10.07326-22.50046,22.50046-22.50046,12.42654,0,22.4998,10.07392,22.4998,22.50046v135.00013c0,12.42621-10.07326,22.4998-22.4998,22.4998-12.4272,0-22.50046-10.07359-22.50046-22.4998Zm89.99987,0v-180.0004c0-12.42654,10.07425-22.4998,22.50046-22.4998,12.42621,0,22.4998,10.07326,22.4998,22.4998v180.0004c0,12.42621-10.07359,22.4998-22.4998,22.4998-12.42621,0-22.50046-10.07359-22.50046-22.4998Zm90.00053,89.99987c0-12.42621-10.07359-22.4998-22.4998-22.4998H219.9996V197.4998c0-12.42621-10.07359-22.4998-22.4998-22.4998s-22.4998,10.07359-22.4998,22.4998v382.50059c0,24.81287,20.18641,44.9996,44.9996,44.9996h382.50059c12.42621,0,22.4998-10.07359,22.4998-22.4998Z" fill="#fff" stroke-width="0"/></svg>
